<svg width="20" height="18" viewBox="0 0 20 18" fill="none" xmlns="http://www.w3.org/2000/svg">
<path d="M14.584 15.4167H16.4173V8.08333H10.9173V15.4167H12.7507V9.91667H14.584V15.4167ZM1.75065 15.4167V1.66667C1.75065 1.42355 1.84723 1.19039 2.01914 1.01849C2.19104 0.846577 2.4242 0.75 2.66732 0.75H15.5007C15.7438 0.75 15.9769 0.846577 16.1488 1.01849C16.3207 1.19039 16.4173 1.42355 16.4173 1.66667V6.25H18.2507V15.4167H19.1673V17.25H0.833984V15.4167H1.75065ZM5.41732 8.08333V9.91667H7.25065V8.08333H5.41732ZM5.41732 11.75V13.5833H7.25065V11.75H5.41732ZM5.41732 4.41667V6.25H7.25065V4.41667H5.41732Z" fill="black"/>
</svg>
