<svg width="19" height="18" viewBox="0 0 19 18" fill="none" xmlns="http://www.w3.org/2000/svg">
<path fill-rule="evenodd" clip-rule="evenodd" d="M6.42071 1.95943C6.02334 1.95977 5.64236 2.11787 5.36149 2.39897C5.08063 2.68008 4.92286 3.0612 4.92286 3.45857C4.92286 3.71432 4.82126 3.95959 4.64042 4.14043C4.45959 4.32127 4.21432 4.42286 3.95857 4.42286C3.70283 4.42286 3.45756 4.32127 3.27672 4.14043C3.09588 3.95959 2.99429 3.71432 2.99429 3.45857C2.98546 3.00294 3.06758 2.55012 3.23584 2.1266C3.40411 1.70308 3.65513 1.31736 3.97424 0.992016C4.29335 0.666668 4.67413 0.408218 5.09431 0.231785C5.51449 0.0553519 5.96564 -0.0355225 6.42136 -0.0355225C6.87708 -0.0355225 7.32822 0.0553519 7.7484 0.231785C8.16859 0.408218 8.54937 0.666668 8.86847 0.992016C9.18758 1.31736 9.43861 1.70308 9.60687 2.1266C9.77513 2.55012 9.85725 3.00294 9.84843 3.45857V4.95643H14.0784V3.45857C14.0784 3.06098 13.9205 2.67966 13.6393 2.39852C13.3582 2.11738 12.9769 1.95943 12.5793 1.95943C12.3235 1.95943 12.0783 1.85784 11.8974 1.677C11.7166 1.49616 11.615 1.25089 11.615 0.995146C11.615 0.739401 11.7166 0.494132 11.8974 0.313293C12.0783 0.132454 12.3235 0.0308601 12.5793 0.0308601C13.4881 0.031201 14.3597 0.392485 15.0022 1.03527C15.6448 1.67805 16.0057 2.54971 16.0057 3.45857V11.1754C16.0057 11.4312 15.9041 11.6764 15.7233 11.8573C15.5424 12.0381 15.2972 12.1397 15.0414 12.1397C14.7857 12.1397 14.5404 12.0381 14.3596 11.8573C14.1787 11.6764 14.0771 11.4312 14.0771 11.1754V10.5814H9.84843V11.3413C9.84843 11.597 9.74683 11.8423 9.566 12.0231C9.38516 12.204 9.13989 12.3056 8.88414 12.3056C8.6284 12.3056 8.38313 12.204 8.20229 12.0231C8.02145 11.8423 7.91986 11.597 7.91986 11.3413V3.45857C7.91986 3.06098 7.76191 2.67966 7.48077 2.39852C7.19962 2.11738 6.81831 1.95943 6.42071 1.95943ZM9.84843 8.65158H14.0784V6.885H9.84714L9.84843 8.65158ZM3.06757 13.9256C3.19412 13.9247 3.31812 13.9612 3.42402 14.0305C3.52991 14.0998 3.613 14.1988 3.66286 14.3151C3.87371 14.8089 4.23629 15.2241 4.69786 15.5006C5.585 16.0329 6.98643 16.0329 7.87357 15.5006C8.33398 15.2233 8.69593 14.8087 8.90857 14.3151C8.95797 14.1992 9.04037 14.1003 9.14553 14.0308C9.25068 13.9613 9.37395 13.9242 9.5 13.9242C9.62605 13.9242 9.74932 13.9613 9.85447 14.0308C9.95963 14.1003 10.042 14.1992 10.0914 14.3151C10.3023 14.8089 10.6649 15.2241 11.1264 15.5006C12.0136 16.0329 13.415 16.0329 14.3021 15.5006C14.7625 15.2233 15.1245 14.8087 15.3371 14.3151C15.3868 14.1987 15.4697 14.0995 15.5756 14.0299C15.6814 13.9604 15.8054 13.9237 15.932 13.9244C16.0586 13.9251 16.1822 13.9631 16.2873 14.0338C16.3923 14.1045 16.4742 14.2046 16.5226 14.3216C16.6581 14.6477 16.8646 14.9396 17.127 15.176C17.3894 15.4124 17.7012 15.5874 18.0397 15.6883C18.1726 15.7276 18.2891 15.8088 18.3721 15.9198C18.455 16.0308 18.4999 16.1656 18.5 16.3041V17.3571C18.5 17.5276 18.4323 17.6912 18.3117 17.8117C18.1912 17.9323 18.0276 18 17.8571 18H1.14286C0.972361 18 0.808848 17.9323 0.688289 17.8117C0.567729 17.6912 0.5 17.5276 0.5 17.3571V16.3029C0.500032 16.1645 0.544716 16.0298 0.627412 15.9188C0.710107 15.8079 0.826398 15.7266 0.959 15.687C1.2976 15.5864 1.60955 15.4117 1.8722 15.1755C2.13485 14.9393 2.3416 14.6476 2.47743 14.3216C2.52605 14.2047 2.60812 14.1047 2.71334 14.0343C2.81855 13.9638 2.94223 13.926 3.06886 13.9256" fill="black"/>
</svg>
