<svg width="19" height="18" viewBox="0 0 19 18" fill="none" xmlns="http://www.w3.org/2000/svg">
<g clip-path="url(#clip0_446_2580)">
<path fill-rule="evenodd" clip-rule="evenodd" d="M9.49956 0.06427C9.24382 0.06427 8.99855 0.165864 8.81771 0.346703C8.63687 0.527541 8.53528 0.772811 8.53528 1.02856V3.99213L4.30913 6.7757C4.19366 6.85174 4.10579 6.96297 4.05854 7.09291C4.01129 7.22284 4.00719 7.36454 4.04685 7.49698L4.04813 7.49956H15.1618V7.49698C15.2016 7.36467 15.1977 7.22307 15.1507 7.09315C15.1037 6.96323 15.0161 6.85192 14.9008 6.7757L10.4638 3.85327V1.99413H11.2623C11.518 1.99413 11.7633 1.89253 11.9441 1.71169C12.125 1.53086 12.2266 1.28559 12.2266 1.02984C12.2266 0.774097 12.125 0.528827 11.9441 0.347988C11.7633 0.16715 11.518 0.0655557 11.2623 0.0655557L9.49956 0.06427ZM17.525 11.0057H17.273V16.0637H17.525C17.7807 16.0637 18.026 16.1653 18.2068 16.3461C18.3877 16.527 18.4893 16.7722 18.4893 17.028C18.4893 17.2837 18.3877 17.529 18.2068 17.7098C18.026 17.8907 17.7807 17.9923 17.525 17.9923H1.68499C1.42924 17.9923 1.18397 17.8907 1.00314 17.7098C0.822297 17.529 0.720703 17.2837 0.720703 17.028C0.720703 16.7722 0.822297 16.527 1.00314 16.3461C1.18397 16.1653 1.42924 16.0637 1.68499 16.0637H1.93699V11.0044H1.68499C1.42924 11.0044 1.18397 10.9028 1.00314 10.722C0.822297 10.5411 0.720703 10.2959 0.720703 10.0401C0.720703 9.78438 0.822297 9.53911 1.00314 9.35827C1.18397 9.17743 1.42924 9.07584 1.68499 9.07584H17.525C17.7807 9.07584 18.026 9.17743 18.2068 9.35827C18.3877 9.53911 18.4893 9.78438 18.4893 10.0401C18.4893 10.2959 18.3877 10.5411 18.2068 10.722C18.026 10.9028 17.7807 11.0044 17.525 11.0044M14.8173 11.0044H13.2101V16.0624H14.8173V11.0044ZM5.78899 11.0044H4.18185V16.0624H5.78899V11.0044ZM10.73 16.0624V13.3496C10.73 13.0321 10.6039 12.7276 10.3794 12.5031C10.1549 12.2787 9.85045 12.1526 9.53299 12.1526C9.21553 12.1526 8.91106 12.2787 8.68658 12.5031C8.4621 12.7276 8.33599 13.0321 8.33599 13.3496V16.0624H10.73Z" fill="black"/>
</g>
<defs>
<clipPath id="clip0_446_2580">
<rect width="18" height="18" fill="white" transform="translate(0.5)"/>
</clipPath>
</defs>
</svg>
